<svg xmlns="http://www.w3.org/2000/svg" class="ytp-heat-map-svg" height="100%" preserveAspectRatio="none" version="1.1" viewBox="0 0 1000 100" width="100%" style="height: 40px;"><defs><clipPath id="4"><path class="ytp-heat-map-path" d="M 0.0,100.0 C 0.0,98.0 -14.3,92.0 0.0,90.0 C 14.3,88.0 28.6,101.3 71.4,90.0 C 114.3,78.7 157.1,45.7 214.3,33.7 C 271.4,21.8 300.0,30.7 357.1,30.3 C 414.3,30.0 442.9,28.7 500.0,32.1 C 557.1,35.4 585.7,43.8 642.9,47.2 C 700.0,50.6 728.6,53.9 785.7,49.0 C 842.9,44.1 885.7,28.1 928.6,22.9 C 971.4,17.7 985.7,7.5 1000.0,22.9 C 1014.3,38.3 1000.0,84.6 1000.0,100.0" fill="white"/></clipPath></defs><rect class="ytp-heat-map-graph" clip-path="url(#4)" fill="white" fill-opacity="0.4" height="100%" width="100%" x="0" y="0"/><rect class="ytp-heat-map-hover" clip-path="url(#4)" fill="white" fill-opacity="0.7" height="100%" width="100%" x="0" y="0"/><rect class="ytp-heat-map-play" clip-path="url(#4)" height="100%" x="0" y="0"/></svg>