<svg xmlns="http://www.w3.org/2000/svg" class="ytp-heat-map-svg" height="100%" preserveAspectRatio="none" version="1.1" viewBox="0 0 1000 100" width="100%" style="height: 40px;"><defs><clipPath id="6"><path class="ytp-heat-map-path" d="M 0.0,100.0 C 0.0,91.5 -7.7,65.8 0.0,57.3 C 7.7,48.7 15.4,65.2 38.5,57.3 C 61.5,49.3 84.6,21.2 115.4,17.5 C 146.2,13.8 161.5,35.2 192.3,38.8 C 223.1,42.4 238.5,31.4 269.2,35.5 C 300.0,39.6 315.4,60.7 346.2,59.4 C 376.9,58.0 392.3,28.1 423.1,28.5 C 453.8,28.9 469.2,57.7 500.0,61.5 C 530.8,65.3 546.2,53.8 576.9,47.5 C 607.7,41.2 623.1,34.1 653.8,29.9 C 684.6,25.7 700.0,22.3 730.8,26.6 C 761.5,30.9 776.9,51.7 807.7,51.4 C 838.5,51.1 853.8,21.0 884.6,25.3 C 915.4,29.6 938.5,63.5 961.5,73.1 C 984.6,82.6 992.3,67.7 1000.0,73.1 C 1007.7,78.5 1000.0,94.6 1000.0,100.0" fill="white"/></clipPath></defs><rect class="ytp-heat-map-graph" clip-path="url(#6)" fill="white" fill-opacity="0.4" height="100%" width="100%" x="0" y="0"/><rect class="ytp-heat-map-hover" clip-path="url(#6)" fill="white" fill-opacity="0.7" height="100%" width="100%" x="0" y="0"/><rect class="ytp-heat-map-play" clip-path="url(#6)" height="100%" x="0" y="0"/></svg>