<svg xmlns="http://www.w3.org/2000/svg" class="ytp-heat-map-svg" height="100%" preserveAspectRatio="none" version="1.1" viewBox="0 0 1000 100" width="100%" style="height: 40px;"><defs><clipPath id="13"><path class="ytp-heat-map-path" d="M 0.0,100.0 C 0.0,96.6 -14.3,86.3 0.0,82.9 C 14.3,79.5 28.6,81.5 71.4,82.9 C 114.3,84.3 157.1,91.8 214.3,90.0 C 271.4,88.2 300.0,74.0 357.1,74.0 C 414.3,74.0 442.9,87.6 500.0,90.0 C 557.1,92.4 585.7,87.2 642.9,86.0 C 700.0,84.7 728.6,94.1 785.7,83.6 C 842.9,73.1 885.7,43.6 928.6,33.5 C 971.4,23.5 985.7,20.3 1000.0,33.5 C 1014.3,46.8 1000.0,86.7 1000.0,100.0" fill="white"/></clipPath></defs><rect class="ytp-heat-map-graph" clip-path="url(#13)" fill="white" fill-opacity="0.4" height="100%" width="100%" x="0" y="0"/><rect class="ytp-heat-map-hover" clip-path="url(#13)" fill="white" fill-opacity="0.7" height="100%" width="100%" x="0" y="0"/><rect class="ytp-heat-map-play" clip-path="url(#13)" height="100%" x="0" y="0"/></svg>