<svg xmlns="http://www.w3.org/2000/svg" class="ytp-heat-map-svg" height="100%" preserveAspectRatio="none" version="1.1" viewBox="0 0 1000 100" width="100%" style="height: 40px;"><defs><clipPath id="12"><path class="ytp-heat-map-path" d="M 0.0,100.0 C 0.0,97.7 -14.3,90.7 0.0,88.4 C 14.3,86.1 28.6,94.2 71.4,88.4 C 114.3,82.6 157.1,64.9 214.3,59.3 C 271.4,53.6 300.0,58.5 357.1,60.1 C 414.3,61.8 442.9,68.5 500.0,67.4 C 557.1,66.3 585.7,57.8 642.9,54.7 C 700.0,51.5 728.6,46.0 785.7,51.7 C 842.9,57.3 885.7,76.7 928.6,82.9 C 971.4,89.2 985.7,79.5 1000.0,82.9 C 1014.3,86.3 1000.0,96.6 1000.0,100.0" fill="white"/></clipPath></defs><rect class="ytp-heat-map-graph" clip-path="url(#12)" fill="white" fill-opacity="0.4" height="100%" width="100%" x="0" y="0"/><rect class="ytp-heat-map-hover" clip-path="url(#12)" fill="white" fill-opacity="0.7" height="100%" width="100%" x="0" y="0"/><rect class="ytp-heat-map-play" clip-path="url(#12)" height="100%" x="0" y="0"/></svg>