<svg xmlns="http://www.w3.org/2000/svg" class="ytp-heat-map-svg" height="100%" preserveAspectRatio="none" version="1.1" viewBox="0 0 1000 100" width="100%" style="height: 40px;"><defs><clipPath id="8"><path class="ytp-heat-map-path" d="M 0.0,100.0 C 0.0,92.3 -14.3,69.2 0.0,61.5 C 14.3,53.8 28.6,64.7 71.4,61.5 C 114.3,58.3 157.1,47.5 214.3,45.4 C 271.4,43.3 300.0,45.8 357.1,51.2 C 414.3,56.7 442.9,75.7 500.0,72.7 C 557.1,69.6 585.7,50.5 642.9,35.9 C 700.0,21.4 728.6,-6.2 785.7,0.0 C 842.9,6.2 885.7,53.4 928.6,66.8 C 971.4,80.1 985.7,60.1 1000.0,66.8 C 1014.3,73.4 1000.0,93.4 1000.0,100.0" fill="white"/></clipPath></defs><rect class="ytp-heat-map-graph" clip-path="url(#8)" fill="white" fill-opacity="0.4" height="100%" width="100%" x="0" y="0"/><rect class="ytp-heat-map-hover" clip-path="url(#8)" fill="white" fill-opacity="0.7" height="100%" width="100%" x="0" y="0"/><rect class="ytp-heat-map-play" clip-path="url(#8)" height="100%" x="0" y="0"/></svg>