<svg xmlns="http://www.w3.org/2000/svg" class="ytp-heat-map-svg" height="100%" preserveAspectRatio="none" version="1.1" viewBox="0 0 1000 100" width="100%" style="height: 40px;"><defs><clipPath id="10"><path class="ytp-heat-map-path" d="M 0.0,100.0 C 0.0,94.7 -5.3,78.9 0.0,73.6 C 5.3,68.3 10.5,73.9 26.3,73.6 C 42.1,73.3 57.9,72.4 78.9,72.0 C 100.0,71.7 110.5,75.1 131.6,72.0 C 152.6,68.9 163.2,55.7 184.2,56.5 C 205.3,57.3 215.8,70.0 236.8,76.0 C 257.9,82.0 268.4,90.8 289.5,86.5 C 310.5,82.2 321.1,63.7 342.1,54.6 C 363.2,45.5 373.7,40.9 394.7,40.8 C 415.8,40.7 426.3,49.8 447.4,54.3 C 468.4,58.8 478.9,60.8 500.0,63.5 C 521.1,66.2 531.6,65.5 552.6,67.8 C 573.7,70.2 584.2,74.0 605.3,75.2 C 626.3,76.4 636.8,76.6 657.9,73.8 C 678.9,71.0 689.5,68.8 710.5,61.3 C 731.6,53.8 742.1,32.9 763.2,36.4 C 784.2,40.0 794.7,68.6 815.8,79.0 C 836.8,89.4 847.4,92.9 868.4,88.5 C 889.5,84.2 900.0,59.3 921.1,57.1 C 942.1,54.9 957.9,73.6 973.7,77.7 C 989.5,81.9 994.7,73.3 1000.0,77.7 C 1005.3,82.2 1000.0,95.5 1000.0,100.0" fill="white"/></clipPath></defs><rect class="ytp-heat-map-graph" clip-path="url(#10)" fill="white" fill-opacity="0.4" height="100%" width="100%" x="0" y="0"/><rect class="ytp-heat-map-hover" clip-path="url(#10)" fill="white" fill-opacity="0.7" height="100%" width="100%" x="0" y="0"/><rect class="ytp-heat-map-play" clip-path="url(#10)" height="100%" x="0" y="0"/></svg>