<svg xmlns="http://www.w3.org/2000/svg" class="ytp-heat-map-svg" height="100%" preserveAspectRatio="none" version="1.1" viewBox="0 0 1000 100" width="100%" style="height: 40px;"><defs><clipPath id="9"><path class="ytp-heat-map-path" d="M 0.0,100.0 C 0.0,93.4 -8.3,73.4 0.0,66.8 C 8.3,60.1 16.7,70.1 41.7,66.8 C 66.7,63.4 91.7,49.3 125.0,50.1 C 158.3,50.9 175.0,65.6 208.3,70.7 C 241.7,75.8 258.3,77.0 291.7,75.5 C 325.0,73.9 341.7,71.8 375.0,63.0 C 408.3,54.2 425.0,36.5 458.3,31.5 C 491.7,26.5 508.3,39.7 541.7,38.0 C 575.0,36.2 591.7,19.8 625.0,22.8 C 658.3,25.9 675.0,43.4 708.3,53.2 C 741.7,62.9 758.3,72.0 791.7,71.8 C 825.0,71.6 841.7,51.6 875.0,51.9 C 908.3,52.3 933.3,69.3 958.3,73.6 C 983.3,77.9 991.7,68.3 1000.0,73.6 C 1008.3,78.9 1000.0,94.7 1000.0,100.0" fill="white"/></clipPath></defs><rect class="ytp-heat-map-graph" clip-path="url(#9)" fill="white" fill-opacity="0.4" height="100%" width="100%" x="0" y="0"/><rect class="ytp-heat-map-hover" clip-path="url(#9)" fill="white" fill-opacity="0.7" height="100%" width="100%" x="0" y="0"/><rect class="ytp-heat-map-play" clip-path="url(#9)" height="100%" x="0" y="0"/></svg>