<svg xmlns="http://www.w3.org/2000/svg" viewBox="0 0 270 270" width="270" height="270" preserveAspectRatio="xMidYMid meet" style="width: 100%; height: 100%; transform: translate3d(0px, 0px, 0px);"><defs><clipPath id="__lottie_element_5"><rect width="270" height="270" x="0" y="0"/></clipPath><clipPath id="__lottie_element_7"><path d="M0,0 L120,0 L120,120 L0,120z"/></clipPath><clipPath id="__lottie_element_21"><path d="M0,0 L128,0 L128,128 L0,128z"/></clipPath></defs><g clip-path="url(#__lottie_element_5)"><g clip-path="url(#__lottie_element_21)" transform="matrix(2.7880001068115234,0,0,2.7880001068115234,-48.0780029296875,-51.58800506591797)" opacity="1" style="display: block;"><g transform="matrix(0.4056888222694397,0.10870399326086044,-0.10870399326086044,0.4056888222694397,63.819969177246094,55.32201385498047)" opacity="1" style="display: block;"><g opacity="1" transform="matrix(1,0,0,1,0,0)"><path stroke-linecap="round" stroke-linejoin="miter" fill-opacity="0" stroke-miterlimit="4" stroke="rgb(255,78,69)" stroke-opacity="1" stroke-width="5" d="M0 0"/></g></g><g transform="matrix(0.6260144710540771,0.13306348025798798,-0.13306348025798798,0.6260144710540771,63.75,70.5)" opacity="1" style="display: block;"><g opacity="1" transform="matrix(1,0,0,1,0,0)"><path stroke-linecap="round" stroke-linejoin="miter" fill-opacity="0" stroke-miterlimit="4" stroke="rgb(195,252,193)" stroke-opacity="1" stroke-width="3" d="M0 0"/></g></g><g style="display: none;"><g><path/></g><g><path/></g><g><path/></g><g><path/></g><g><path/></g><g><path/></g></g><g transform="matrix(0.6156615018844604,0.7880107760429382,-0.7880107760429382,0.6156615018844604,60.8013916015625,70.60517120361328)" opacity="1" style="display: block;"><g opacity="1" transform="matrix(1,0,0,1,0,0)"><path stroke-linecap="round" stroke-linejoin="miter" fill-opacity="0" stroke-miterlimit="4" stroke="rgb(195,252,193)" stroke-opacity="1" stroke-width="4" d="M0 0"/></g></g><g transform="matrix(-0.3420201539993286,0.9396926164627075,-0.9396926164627075,-0.3420201539993286,57.86277770996094,63.6497688293457)" opacity="1" style="display: block;"><g opacity="1" transform="matrix(1,0,0,1,0,0)"><path stroke-linecap="round" stroke-linejoin="miter" fill-opacity="0" stroke-miterlimit="4" stroke="rgb(255,78,69)" stroke-opacity="1" stroke-width="4" d="M0 0"/></g></g><g style="display: none;"><g><path/></g><g><path/></g><g><path/></g><g><path/></g><g><path/></g><g><path/></g></g><g transform="matrix(-0.882947564125061,-0.4694715738296509,0.4694715738296509,-0.882947564125061,54.99470138549805,66.93231201171875)" opacity="1" style="display: block;"><g opacity="1" transform="matrix(1,0,0,1,0,0)"><path stroke-linecap="round" stroke-linejoin="miter" fill-opacity="0" stroke-miterlimit="4" stroke="rgb(180,123,255)" stroke-opacity="1" stroke-width="4" d="M0 0"/></g></g><g transform="matrix(-0.24192190170288086,-0.9702957272529602,0.9702957272529602,-0.24192190170288086,65.31019592285156,68.61397552490234)" opacity="1" style="display: block;"><g opacity="1" transform="matrix(1,0,0,1,-1,0)"><path stroke-linecap="round" stroke-linejoin="miter" fill-opacity="0" stroke-miterlimit="4" stroke="rgb(195,252,193)" stroke-opacity="1" stroke-width="3" d="M0 0"/></g></g><g style="display: none;"><g><path/></g><g><path/></g><g><path/></g><g><path/></g><g><path/></g><g><path/></g><g><path/></g><g><path/></g><g><path/></g></g><g transform="matrix(0.8660253882408142,-0.5,0.5,0.8660253882408142,59.2075309753418,70.43893432617188)" opacity="1" style="display: block;"><g opacity="1" transform="matrix(1,0,0,1,0,0)"><path stroke-linecap="round" stroke-linejoin="miter" fill-opacity="0" stroke-miterlimit="4" stroke="rgb(229,229,44)" stroke-opacity="1" stroke-width="6" d="M0 0"/></g></g></g><g clip-path="url(#__lottie_element_7)" transform="matrix(1.0880000591278076,0,0,1.0880000591278076,69.95299530029297,67.9433822631836)" opacity="1" style="display: block;"><g transform="matrix(1,0,0,1,60,60)" opacity="1" style="display: block;"><path fill="rgb(255,255,255)" fill-opacity="1" d=" M25.025999069213867,-4.00600004196167 C25.025999069213867,-4.00600004196167 5.992000102996826,-3.996999979019165 5.992000102996826,-3.996999979019165 C5.992000102996826,-3.996999979019165 11.012999534606934,-22.983999252319336 11.012999534606934,-22.983999252319336 C12.230999946594238,-26.90399932861328 13,-31.94300079345703 8.994000434875488,-31.981000900268555 C7,-32 5,-32 4.021999835968018,-31.007999420166016 C4.021999835968018,-31.007999420166016 -19.993000030517578,-5.03000020980835 -19.993000030517578,-5.03000020980835 C-19.993000030517578,-5.03000020980835 -20.027999877929688,32.025001525878906 -20.027999877929688,32.025001525878906 C-20.027999877929688,32.025001525878906 20.97599983215332,31.986000061035156 20.97599983215332,31.986000061035156 C25.010000228881836,31.986000061035156 26.198999404907227,29.562000274658203 26.99799919128418,25.985000610351562 C26.99799919128418,25.985000610351562 31.972000122070312,4.026000022888184 31.972000122070312,4.026000022888184 C33,-0.6930000185966492 30.392000198364258,-4.00600004196167 25.025999069213867,-4.00600004196167z"/><path stroke-linecap="butt" stroke-linejoin="miter" fill-opacity="0" stroke-miterlimit="4" stroke="rgb(255,255,255)" stroke-opacity="1" stroke-width="4" d=" M25.025999069213867,-4.00600004196167 C25.025999069213867,-4.00600004196167 5.992000102996826,-3.996999979019165 5.992000102996826,-3.996999979019165 C5.992000102996826,-3.996999979019165 11.012999534606934,-22.983999252319336 11.012999534606934,-22.983999252319336 C12.230999946594238,-26.90399932861328 13,-31.94300079345703 8.994000434875488,-31.981000900268555 C7,-32 5,-32 4.021999835968018,-31.007999420166016 C4.021999835968018,-31.007999420166016 -19.993000030517578,-5.03000020980835 -19.993000030517578,-5.03000020980835 C-19.993000030517578,-5.03000020980835 -20.027999877929688,32.025001525878906 -20.027999877929688,32.025001525878906 C-20.027999877929688,32.025001525878906 20.97599983215332,31.986000061035156 20.97599983215332,31.986000061035156 C25.010000228881836,31.986000061035156 26.198999404907227,29.562000274658203 26.99799919128418,25.985000610351562 C26.99799919128418,25.985000610351562 31.972000122070312,4.026000022888184 31.972000122070312,4.026000022888184 C33,-0.6930000185966492 30.392000198364258,-4.00600004196167 25.025999069213867,-4.00600004196167z"/></g><g style="display: none;"><path stroke-linecap="butt" stroke-linejoin="miter" fill-opacity="0" stroke-miterlimit="4"/></g><g transform="matrix(1,0,0,1,60,60)" opacity="1" style="display: block;"><path fill="rgb(255,255,255)" fill-opacity="1" d=" M-27.993000030517578,-4.015999794006348 C-27.993000030517578,-4.015999794006348 -36.02799987792969,-3.996999979019165 -36.02799987792969,-3.996999979019165 C-36.02799987792969,-3.996999979019165 -36,31.9950008392334 -36,31.9950008392334 C-36,31.9950008392334 -28.027999877929688,31.976999282836914 -28.027999877929688,31.976999282836914 C-28.027999877929688,31.976999282836914 -27.993000030517578,-4.015999794006348 -27.993000030517578,-4.015999794006348z"/><path stroke-linecap="butt" stroke-linejoin="miter" fill-opacity="0" stroke-miterlimit="4" stroke="rgb(255,255,255)" stroke-opacity="1" stroke-width="4" d=" M-27.993000030517578,-4.015999794006348 C-27.993000030517578,-4.015999794006348 -36.02799987792969,-3.996999979019165 -36.02799987792969,-3.996999979019165 C-36.02799987792969,-3.996999979019165 -36,31.9950008392334 -36,31.9950008392334 C-36,31.9950008392334 -28.027999877929688,31.976999282836914 -28.027999877929688,31.976999282836914 C-28.027999877929688,31.976999282836914 -27.993000030517578,-4.015999794006348 -27.993000030517578,-4.015999794006348z"/></g><g style="display: none;"><path stroke-linecap="butt" stroke-linejoin="miter" fill-opacity="0" stroke-miterlimit="4"/></g></g></g></svg>