<svg xmlns="http://www.w3.org/2000/svg" class="ytp-heat-map-svg" height="100%" preserveAspectRatio="none" version="1.1" viewBox="0 0 1000 100" width="100%" style="height: 40px;"><defs><clipPath id="7"><path class="ytp-heat-map-path" d="M 0.0,100.0 C 0.0,94.6 -7.1,78.5 0.0,73.1 C 7.1,67.7 14.3,74.4 35.7,73.1 C 57.1,71.8 78.6,69.3 107.1,66.6 C 135.7,63.9 150.0,63.5 178.6,59.5 C 207.1,55.6 221.4,56.3 250.0,46.9 C 278.6,37.5 292.9,18.3 321.4,12.7 C 350.0,7.1 364.3,12.9 392.9,18.8 C 421.4,24.6 435.7,36.0 464.3,41.9 C 492.9,47.9 507.1,43.6 535.7,48.6 C 564.3,53.5 578.6,66.6 607.1,66.9 C 635.7,67.2 650.0,51.8 678.6,50.0 C 707.1,48.3 721.4,58.1 750.0,58.0 C 778.6,58.0 792.9,54.3 821.4,49.9 C 850.0,45.4 864.3,33.3 892.9,35.6 C 921.4,38.0 942.9,56.3 964.3,61.5 C 985.7,66.7 992.9,53.8 1000.0,61.5 C 1007.1,69.2 1000.0,92.3 1000.0,100.0" fill="white"/></clipPath></defs><rect class="ytp-heat-map-graph" clip-path="url(#7)" fill="white" fill-opacity="0.4" height="100%" width="100%" x="0" y="0"/><rect class="ytp-heat-map-hover" clip-path="url(#7)" fill="white" fill-opacity="0.7" height="100%" width="100%" x="0" y="0"/><rect class="ytp-heat-map-play" clip-path="url(#7)" height="100%" x="0" y="0"/></svg>