<svg xmlns="http://www.w3.org/2000/svg" class="ytp-heat-map-svg" height="100%" preserveAspectRatio="none" version="1.1" viewBox="0 0 1000 100" width="100%" style="height: 40px;"><defs><clipPath id="5"><path class="ytp-heat-map-path" d="M 0.0,100.0 C 0.0,84.6 -7.1,38.3 0.0,22.9 C 7.1,7.5 14.3,27.4 35.7,22.9 C 57.1,18.3 78.6,-3.0 107.1,0.0 C 135.7,3.1 150.0,30.7 178.6,38.0 C 207.1,45.3 221.4,37.8 250.0,36.5 C 278.6,35.2 292.9,29.2 321.4,31.5 C 350.0,33.8 364.3,47.5 392.9,48.1 C 421.4,48.6 435.7,34.2 464.3,34.1 C 492.9,34.0 507.1,47.0 535.7,47.6 C 564.3,48.1 578.6,43.9 607.1,36.9 C 635.7,29.9 650.0,16.8 678.6,12.6 C 707.1,8.4 721.4,8.1 750.0,16.0 C 778.6,23.8 792.9,46.2 821.4,51.9 C 850.0,57.7 864.3,43.7 892.9,44.7 C 921.4,45.8 942.9,54.8 964.3,57.3 C 985.7,59.8 992.9,48.7 1000.0,57.3 C 1007.1,65.8 1000.0,91.5 1000.0,100.0" fill="white"/></clipPath></defs><rect class="ytp-heat-map-graph" clip-path="url(#5)" fill="white" fill-opacity="0.4" height="100%" width="100%" x="0" y="0"/><rect class="ytp-heat-map-hover" clip-path="url(#5)" fill="white" fill-opacity="0.7" height="100%" width="100%" x="0" y="0"/><rect class="ytp-heat-map-play" clip-path="url(#5)" height="100%" x="0" y="0"/></svg>