<svg xmlns="http://www.w3.org/2000/svg" class="ytp-heat-map-svg" height="100%" preserveAspectRatio="none" version="1.1" viewBox="0 0 1000 100" width="100%" style="height: 40px;"><defs><clipPath id="11"><path class="ytp-heat-map-path" d="M 0.0,100.0 C 0.0,95.5 -12.5,82.2 0.0,77.7 C 12.5,73.3 25.0,78.3 62.5,77.7 C 100.0,77.2 137.5,72.7 187.5,75.2 C 237.5,77.6 262.5,89.7 312.5,90.0 C 362.5,90.3 387.5,83.2 437.5,76.5 C 487.5,69.9 512.5,57.3 562.5,56.7 C 612.5,56.1 637.5,68.0 687.5,73.6 C 737.5,79.1 762.5,81.5 812.5,84.5 C 862.5,87.5 900.0,87.6 937.5,88.4 C 975.0,89.2 987.5,86.1 1000.0,88.4 C 1012.5,90.7 1000.0,97.7 1000.0,100.0" fill="white"/></clipPath></defs><rect class="ytp-heat-map-graph" clip-path="url(#11)" fill="white" fill-opacity="0.4" height="100%" width="100%" x="0" y="0"/><rect class="ytp-heat-map-hover" clip-path="url(#11)" fill="white" fill-opacity="0.7" height="100%" width="100%" x="0" y="0"/><rect class="ytp-heat-map-play" clip-path="url(#11)" height="100%" x="0" y="0"/></svg>